<?xml version="1.0" encoding="UTF-8"?>
<svg id="Calque_2" data-name="Calque 2" xmlns="http://www.w3.org/2000/svg" viewBox="0 0 383.14 342.42">
  <defs>
    <style>
      .cls-1 {
        stroke-width: 0px;
      }
    </style>
  </defs>
  <g id="Calque_1-2" data-name="Calque 1">
    <path class="cls-1" d="m0,8.58C2.69,2.08,7.61-.17,14.52,0c12.47.32,24.95.05,37.42.1,15.21.06,24.78,7.46,28.76,22.19,3.93,14.55,7.89,29.08,11.66,43.67.68,2.65,1.73,3.54,4.52,3.55,54.89.14,109.77.39,164.66.63,32.68.14,65.36.28,98.04.48,15.98.1,26.4,12.66,22.89,28.23-8.88,39.36-17.97,78.68-27.21,117.96-3.05,12.96-13.79,21.05-27.28,21.4-4.74.12-9.48.03-14.22.03-66.36-.04-132.73-.08-199.09-.11-1.74,0-3.5-.01-5.23.18-6.5.7-11.08,5.89-11.08,12.47,0,6.55,4.63,11.7,11.18,12.34,1.73.17,3.49.14,5.23.14,73.1,0,146.2,0,219.31,0,8.89,0,14.19,5.09,13.3,12.77-.51,4.38-3.22,7.14-7.05,9.12,7.4,20.31,3.78,37.7-14.43,50.39-13.25,9.23-31.26,8.36-44.24-1.13-14.84-10.86-18.96-25.96-13.04-48.4h-69.88c6.97,19.94,3.2,37.16-14.63,49.34-13.85,9.46-29.07,9.36-42.89-.05-17.72-12.06-21.42-29.23-14.49-49.59-5.38,0-10.44.07-15.49-.01-18.23-.29-32.31-12.37-35.1-30.05-3.01-19.11,11.06-37.55,30.31-39.74.85-.1,1.7-.22,2.84-.37-.31-1.46-.53-2.78-.87-4.06-16.45-61.08-32.92-122.16-49.38-183.24-1.33-4.94-2.2-5.63-7.24-5.63-12.47-.01-24.95-.17-37.42.06-6.89.13-11.84-2.23-14.36-8.86v-5.24Zm99.5,83.6c4.64,17.21,9.16,33.97,13.68,50.73h43.22c.07-.7.2-1.2.14-1.67-2.04-15.68-4.06-31.35-6.26-47.01-.11-.77-1.79-1.83-2.79-1.88-4.35-.23-8.71-.16-13.07-.17-11.45-.01-22.9,0-34.91,0Zm145.6.6v49.96c.58.16.93.34,1.28.34,12.95.02,25.91,0,38.86.08,2.21.02,2.68-1.06,2.91-2.91,1.43-11.23,2.96-22.46,4.42-33.68.59-4.49,1.09-8.99,1.67-13.78h-49.14Zm-65.57,50.13h42.65v-50.24h-49.37c2.27,16.96,4.49,33.58,6.72,50.24Zm130.92.02h38.85c3.83-16.58,7.62-33.02,11.54-50-14.27,0-28.09-.05-41.91.13-.79.01-2.08,1.8-2.24,2.89-1.33,8.74-2.46,17.51-3.61,26.28-.89,6.77-1.72,13.55-2.63,20.7Zm-191.2,22.67c4.3,15.83,8.34,31.07,12.73,46.21.46,1.58,2.99,3.59,4.61,3.65,9.79.34,19.6.17,29.51.17.04-.88.17-1.49.09-2.08-2-15.3-3.99-30.59-6.13-45.87-.11-.79-1.51-1.98-2.32-1.99-12.56-.13-25.12-.09-38.49-.09Zm125.9.19v50c10.51,0,20.71.07,30.9-.12.82-.02,2.17-1.71,2.33-2.76,1.35-8.86,2.5-17.75,3.67-26.63.88-6.74,1.7-13.48,2.58-20.47h-39.48Zm-23,49.81v-49.78h-39.6c2.23,16.75,4.43,33.23,6.64,49.78h32.97Zm85.22-49.82c-2.19,16.62-4.37,33.09-6.59,49.93,9.48,0,18.55.13,27.61-.07,3.34-.07,4.77-2.61,5.46-5.71,2.47-11.04,5.04-22.07,7.58-33.1.82-3.59,1.64-7.18,2.52-11.06h-36.58Zm-144.84,153.62c9.37.05,16.99-7.44,17.01-16.73.02-9.21-7.73-16.95-16.93-16.92-9.13.03-16.64,7.51-16.73,16.66-.09,9.45,7.25,16.94,16.65,16.99Zm142.01,0c9.39.04,16.9-7.41,16.9-16.77,0-9.28-7.69-16.95-16.91-16.88-9.13.08-16.59,7.54-16.7,16.7-.12,9.36,7.32,16.91,16.71,16.95Z"/>
  </g>
</svg>