<?xml version="1.0" encoding="UTF-8"?>
<svg id="Calque_2" data-name="Calque 2" xmlns="http://www.w3.org/2000/svg" viewBox="0 0 263.58 359.46">
  <defs>
    <style>
      .cls-1 {
        stroke-width: 0px;
      }
    </style>
  </defs>
  <g id="Calque_1-2" data-name="Calque 1">
    <path class="cls-1" d="m131.69,267.06c-10,7.99-19.92,15.92-29.84,23.85-26.59,21.28-53.17,42.58-79.75,63.86-1.17.93-2.32,1.9-3.58,2.7-7.83,5-17.84-.07-18.47-9.34-.08-1.24-.04-2.49-.04-3.74,0-109.82,0-219.64,0-329.46C.01,4.17,4.17,0,14.92,0,93.03,0,171.14,0,249.24,0c9.87,0,14.31,4.47,14.31,14.44,0,110.07,0,220.14,0,330.21,0,.25-.01.5,0,.75.3,5.75-1.67,10.33-7.06,12.9-5.35,2.55-9.83.6-14.1-2.85-11.83-9.57-23.75-19.04-35.63-28.54-24.06-19.25-48.12-38.49-72.19-57.73-.86-.69-1.78-1.3-2.88-2.1Zm107.64,55.22V24.27H24.31v297.93c1.29-1.01,2.18-1.69,3.05-2.39,31.67-25.31,63.33-50.63,95.01-75.93,7.21-5.76,11.81-5.76,19.01,0,22.99,18.39,45.96,36.8,68.94,55.2,9.52,7.62,19.05,15.23,29.01,23.2Z"/>
  </g>
</svg>