<?xml version="1.0" encoding="UTF-8"?>
<svg id="Calque_2" data-name="Calque 2" xmlns="http://www.w3.org/2000/svg" viewBox="0 0 43.94 45.47">
  <defs>
    <style>
      .cls-1 {
        stroke-width: 0px;
      }
    </style>
  </defs>
  <g id="Calque_1-2" data-name="Calque 1">
    <path class="cls-1" d="m19.59,0c.93.15,1.88.23,2.79.45,5.69,1.37,9.95,4.63,12.48,9.91,3.06,6.39,2.43,12.59-1.41,18.49-.29.44-.64.85-.99,1.31.11.11.21.23.32.34,3.44,3.57,6.88,7.15,10.31,10.72.93.97,1.1,2.09.49,3.11-.75,1.23-2.45,1.51-3.55.58-.17-.14-.33-.3-.48-.46-3.44-3.57-6.88-7.15-10.31-10.72-.1-.11-.17-.24-.21-.29-1.18.62-2.22,1.27-3.34,1.74-5.02,2.12-10.05,2.12-15-.2-5.17-2.43-8.55-6.46-10.03-11.98C-.65,18.12,0,13.43,2.59,9.07,5.34,4.46,9.38,1.59,14.61.4c.85-.19,1.72-.27,2.58-.4.8,0,1.6,0,2.4,0Zm-1.19,4.8c-7.46,0-13.55,6.08-13.56,13.55-.01,7.46,6.02,13.52,13.54,13.58,7.44.06,13.6-6.1,13.58-13.57-.01-7.48-6.09-13.56-13.56-13.56Z"/>
  </g>
</svg>