<?xml version="1.0" encoding="UTF-8"?>
<svg id="Calque_2" data-name="Calque 2" xmlns="http://www.w3.org/2000/svg" viewBox="0 0 409.01 408.86">
  <defs>
    <style>
      .cls-1 {
        stroke-width: 0px;
      }
    </style>
  </defs>
  <g id="Calque_1-2" data-name="Calque 1">
    <path class="cls-1" d="m0,216.43c0-7.99,0-15.97,0-23.96.24-1.28.61-2.54.7-3.83,1.23-18.42,5.09-36.31,11.37-53.63C47.82,36.53,151.67-18.96,253.51,5.92c105.06,25.67,172.4,130.76,151.8,236.86-7.9,40.69-26.34,75.88-55.48,105.29-30.55,30.84-67.26,50.25-110.14,57.64-7.7,1.33-15.5,2.11-23.26,3.15h-23.96c-5.39-.64-10.8-1.19-16.18-1.95-40.31-5.69-75.96-21.79-106.47-48.73-35.93-31.73-58.41-71.21-66.68-118.56C1.8,231.94,1.03,224.16,0,216.43Zm68.08,105.58c13.35-47.15,42.8-79.34,87.84-97.61-47.41-34.04-46.29-95.2-15.27-128.92,31.89-34.66,85.75-38.02,120.34-7.05,18.72,16.75,28.97,37.71,29.34,62.79.46,30.55-12.63,54.75-37.56,73.22,22.07,8.37,40.61,20.9,56,38,15.45,17.16,25.91,37.04,31.9,59.58,54.19-60.05,65.09-165.85-3.98-240.01C266.47,6.6,151,4.08,77.83,76.15,5.17,147.72,10.22,256.68,68.08,322.01Zm139.53,62.91c4.08-.33,11.53-.72,18.91-1.59,34.29-4.07,64.72-17.35,91.52-39,1.02-.83,1.72-2.87,1.56-4.23-1.32-11.45-4.69-22.33-9.56-32.75-19.23-41.13-59.98-67.55-106.12-67.37-24.77.1-47.46,7.45-67.45,22.14-26.68,19.61-42.6,45.89-47.32,78.76-.15,1.08.75,2.73,1.68,3.48,33.1,26.63,70.98,40,116.78,40.57Zm-3.07-169.75c34.17-.11,61.92-27.8,62.05-61.91.13-34.07-28.06-62.24-62.22-62.19-34.19.06-62.39,28.4-62.05,62.36.35,34.23,28.18,61.85,62.22,61.74Z"/>
  </g>
</svg>